PathFileType	4	(X/Y/Z)	C:\Users\Basilio\Documents\Thesis Gigler\squatting_fais\c3dfiles\076\SLS_back_pre5\markers_experimental.trc
DataRate	CameraRate	NumFrames	NumMarkers	Units	OrigDataRate	OrigDataStartFrame	OrigNumFrames
200.000000	200.000000	4	61	mm	200.000000	986	1578
Frame#	Time	FHD			LBHD			RBHD			C7			T10			CLAV			LSHO			LUUPA			LMUPA			LDUPA			LLEP			LMEP			LRAD			LUL			LRFIN			RSHO			RUPA1			RMUPA			RDUPA			RLEP			RMEP			RRAD			RUL			RUFIN			LASI			RASI			USACR			LSACR			RSACR			LTHI1			LTHI2			LTHI3			LTHI4			LLFC			LMFC			LTIB1			LTIB2			LTIB3			LTIB4			LLMAL			LMMAL			LHEE			LMT1			LMT2			LMT5			RTHI			RTHI2			RTHI3			RTHI4			RLFC			RMFC			RTIB1			RTIB2			RTIB3			RTIB4			RLMAL			RMMAL			RHEE			RMT1			RMT2			RMT5			
		X1	Y1	Z1	X2	Y2	Z2	X3	Y3	Z3	X4	Y4	Z4	X5	Y5	Z5	X6	Y6	Z6	X7	Y7	Z7	X8	Y8	Z8	X9	Y9	Z9	X10	Y10	Z10	X11	Y11	Z11	X12	Y12	Z12	X13	Y13	Z13	X14	Y14	Z14	X15	Y15	Z15	X16	Y16	Z16	X17	Y17	Z17	X18	Y18	Z18	X19	Y19	Z19	X20	Y20	Z20	X21	Y21	Z21	X22	Y22	Z22	X23	Y23	Z23	X24	Y24	Z24	X25	Y25	Z25	X26	Y26	Z26	X27	Y27	Z27	X28	Y28	Z28	X29	Y29	Z29	X30	Y30	Z30	X31	Y31	Z31	X32	Y32	Z32	X33	Y33	Z33	X34	Y34	Z34	X35	Y35	Z35	X36	Y36	Z36	X37	Y37	Z37	X38	Y38	Z38	X39	Y39	Z39	X40	Y40	Z40	X41	Y41	Z41	X42	Y42	Z42	X43	Y43	Z43	X44	Y44	Z44	X45	Y45	Z45	X46	Y46	Z46	X47	Y47	Z47	X48	Y48	Z48	X49	Y49	Z49	X50	Y50	Z50	X51	Y51	Z51	X52	Y52	Z52	X53	Y53	Z53	X54	Y54	Z54	X55	Y55	Z55	X56	Y56	Z56	X57	Y57	Z57	X58	Y58	Z58	X59	Y59	Z59	X60	Y60	Z60	X61	Y61	Z61	

987	4.93	-57.72386169433595	1481.497436523438	-1035.236694335938	-195.1532287597657	1408.675659179688	-1132.928588867188	-183.4857177734375	1415.082397460938	-981.990417480469	-243.2890167236329	1321.18408203125	-1050.67333984375	-392.4046630859376	1047.441040039063	-1022.628112792969	-143.7523956298828	1204.255981445313	-1050.992065429688	-206.7140655517579	1243.832397460938	-1222.884033203125	-282.7232971191407	1053.470092773438	-1272.306762695313	-263.5164489746094	1018.647277832031	-1242.198852539063	-306.0183715820313	988.5576171875002	-1273.601684570313	-340.5792541503907	943.184997558594	-1272.415649414063	-378.1443176269532	950.5773925781252	-1199.14599609375	-337.8795166015626	701.7246093750001	-1214.782592773438	-372.9683837890626	701.5689697265626	-1270.48046875	-356.5309143066407	611.6179199218751	-1212.004638671875	-187.540267944336	1237.354248046875	-881.885437011719	-268.4889526367188	1057.381225585938	-797.821228027344	-235.2373199462891	1022.974731445313	-807.9907836914065	-284.9443969726563	988.9673461914065	-797.7208251953127	-292.5751647949219	927.003112792969	-802.589294433594	-303.2950744628907	920.3350830078127	-884.3260498046877	-285.4685058593751	681.6173095703126	-812.704040527344	-336.2550048828126	698.8714599609376	-772.0301513671877	-300.7387390136719	605.6206054687501	-781.6218261718752	-310.2067260742188	829.960876464844	-1122.960327148438	-305.6411437988282	820.0319824218752	-909.855895996094	-441.1257324218751	947.0471801757815	-1008.930725097656	-461.2374877929689	923.846374511719	-1037.46240234375	-458.5447998046876	921.2786865234377	-979.8841552734377	-359.4660034179688	704.1312255859376	-1196.549072265625	-303.4446105957032	647.0651855468751	-1191.023803710938	-259.2548217773438	668.3858032226564	-1178.61767578125	-305.6043395996094	587.2710571289064	-1177.80810546875	-233.6582641601563	448.9742736816407	-1147.609008789063	-209.5443420410157	461.8076477050782	-1035.671020507813	-230.2110748291016	316.6127014160157	-1051.608520507813	-268.2070922851563	258.9052124023438	-1107.99072265625	-240.4512634277344	261.8861083984376	-1069.2119140625	-283.7509155273438	204.8463287353516	-1024.202758789063	-380.1065063476563	106.0460968017578	-1058.334106445313	-349.3366699218751	121.2362442016602	-979.6302490234377	-440.8510742187501	96.44181060791018	-1007.60986328125	-239.939682006836	52.07881546020509	-992.9297485351565	-234.9542388916016	49.68751144409181	-1031.887573242188	-260.0137023925782	43.89286041259766	-1081.588623046875	-367.2676696777344	594.3557128906251	-831.6967773437502	-322.0208740234376	541.5392456054689	-830.1159667968752	-290.7209777832032	546.0317993164064	-842.7920532226565	-345.7123718261719	462.731658935547	-846.756774902344	-346.3518066406251	422.5921020507814	-856.8206787109377	-332.0966491699219	411.8703002929689	-972.360778808594	-447.1018371582032	352.3475036621094	-892.4905395507815	-536.4336547851564	413.3600463867189	-880.3584594726565	-532.9701538085939	367.8097839355469	-890.5126953125002	-571.1455078125001	351.3013916015626	-932.705749511719	-717.2849731445314	395.7839965820314	-920.3640136718752	-687.1359863281251	377.9555969238282	-998.832946777344	-734.0523681640626	454.9448547363282	-965.0988769531252	-745.7260131835939	254.5727691650391	-1008.454284667969	-750.8406982421876	242.806625366211	-963.795837402344	-780.1356201171877	266.4102783203126	-913.8353271484377	
988	4.935	-58.82812118530275	1483.00732421875	-1035.20703125	-195.1459655761719	1410.433227539063	-1133.794067382813	-184.631820678711	1416.54345703125	-981.8897094726565	-244.1189727783204	1322.540405273438	-1050.598754882813	-392.4472656250001	1048.071411132813	-1022.7958984375	-144.5621948242188	1205.91943359375	-1051.07373046875	-207.3560180664063	1245.185668945313	-1222.912353515625	-283.0678710937501	1054.820556640625	-1272.366333007813	-263.9213562011719	1019.958312988281	-1242.1328125	-306.5893249511719	989.8431396484377	-1273.739013671875	-340.5692138671876	944.226501464844	-1272.426147460938	-379.3178405761719	950.5012207031252	-1199.627807617188	-338.3458557128907	702.1919555664064	-1212.48388671875	-372.1121826171876	702.6101684570314	-1269.706787109375	-355.2682800292969	612.4729003906251	-1211.532348632813	-188.4787750244141	1238.688232421875	-881.748229980469	-269.3679199218751	1058.671875	-797.8681640625002	-236.0052795410157	1024.276000976563	-807.8518066406252	-285.7197875976563	990.180114746094	-797.6884765625002	-293.0330505371094	928.2044677734377	-802.524108886719	-303.5195922851563	921.5879516601565	-884.1773071289065	-284.6341552734376	682.7900390625001	-813.1672973632815	-335.4885253906251	699.7176513671876	-772.4307250976565	-299.3295288085938	606.5714111328126	-782.029724121094	-309.7012329101563	830.8057861328127	-1123.100952148438	-304.9945373535157	821.055603027344	-909.8833618164065	-440.336395263672	947.8613891601565	-1009.376586914063	-461.560760498047	924.648864746094	-1037.23046875	-458.2850036621095	921.8747558593752	-980.066101074219	-359.3852539062501	704.8333740234376	-1196.334594726563	-303.1882324218751	647.2976074218751	-1191.058715820313	-259.0797119140626	668.5805053710939	-1178.729858398438	-305.5451965332032	587.6345214843751	-1177.389404296875	-233.7658233642579	449.1449279785157	-1147.636474609375	-209.6343383789063	461.9673767089845	-1035.660766601563	-230.3690795898438	316.6937866210938	-1051.548217773438	-268.3105468750001	259.0487365722657	-1107.99609375	-240.5883941650391	261.9784851074219	-1069.238647460938	-283.8201599121094	204.9302978515626	-1024.245239257813	-380.2333374023438	106.1456069946289	-1058.3994140625	-349.3265075683594	121.2034149169922	-979.6010742187502	-440.8293762207032	96.47021484375003	-1007.611083984375	-239.9773406982422	52.06992721557619	-992.9129028320315	-234.9182891845704	49.66696929931642	-1031.862182617188	-259.9864501953126	43.85961532592774	-1081.574829101563	-366.0868835449219	595.2807617187501	-831.7492675781252	-323.6817016601563	543.5883178710939	-834.330505371094	-289.9348144531251	546.8702392578126	-842.7127685546877	-344.9640502929688	463.4685363769532	-846.647399902344	-345.5604248046876	423.3445129394532	-856.8530883789065	-331.5023498535157	412.5964965820314	-972.2082519531252	-446.1095581054689	353.1060485839844	-892.2739257812502	-535.7481079101564	413.812957763672	-880.2873535156252	-532.1265869140626	368.1495971679688	-890.5440063476565	-570.2268676757814	351.6936340332032	-932.6164550781252	-716.4949340820314	395.9153747558595	-920.3131103515627	-686.4017333984376	378.3393859863282	-998.9267578125002	-733.3309326171876	454.9924316406251	-965.0552978515627	-744.7131958007814	254.7203674316407	-1008.4599609375	-749.7868041992189	242.914535522461	-963.8273925781252	-779.1631469726565	266.6182861328126	-913.7863769531252	
989	4.94	-60.02391433715822	1484.71337890625	-1035.224487304688	-197.0735168457032	1411.390502929688	-1132.90283203125	-185.617919921875	1418.048217773438	-981.7322998046877	-245.0610809326172	1323.8310546875	-1050.492065429688	-392.6043090820314	1048.880249023438	-1022.944519042969	-145.0416870117188	1207.320922851563	-1050.968017578125	-207.8350067138672	1246.61376953125	-1222.949951171875	-283.3050231933594	1055.94677734375	-1272.490112304688	-263.9220275878907	1021.438842773438	-1242.75	-306.7648010253907	991.2185668945315	-1274.103149414063	-340.2868347167969	945.249938964844	-1272.495483398438	-378.7237548828126	952.9606933593752	-1199.445922851563	-337.4797973632813	703.2227783203126	-1211.767944335938	-370.8729553222657	703.5963745117189	-1269.249877929688	-355.2983398437501	613.7600097656251	-1211.520629882813	-189.3345184326172	1240.229858398438	-881.7395629882815	-270.1475524902344	1060.104858398438	-797.8162231445315	-236.6921997070313	1025.75927734375	-807.6466064453127	-286.3639221191407	991.5828857421877	-797.7030029296877	-293.3690490722657	929.415466308594	-802.314636230469	-303.7409667968751	922.498718261719	-884.039245605469	-283.6675109863282	684.0644531250001	-813.5795898437502	-334.5520935058594	700.4293823242189	-772.803649902344	-297.4941406250001	607.8748168945314	-782.4941406250002	-308.7717590332032	831.513122558594	-1123.224243164063	-304.5733642578126	822.0863037109377	-909.9297485351565	-440.1903076171876	948.5604248046877	-1009.518615722656	-461.2338256835939	925.3841552734377	-1037.3681640625	-458.0451965332032	922.4770507812502	-980.1004638671877	-359.0041198730469	705.5897216796876	-1195.9189453125	-303.0544738769532	647.6401367187501	-1190.956420898438	-258.7595825195313	668.7309570312501	-1178.738891601563	-305.6883850097657	587.8827514648439	-1175.708374023438	-233.880599975586	449.3047485351564	-1147.54541015625	-209.7095031738282	462.1148376464845	-1035.54248046875	-230.4790039062501	316.7985534667969	-1051.533935546875	-268.4911499023438	259.1384277343751	-1107.965454101563	-240.7621154785157	262.1106567382813	-1069.277587890625	-283.8925781250001	205.0581512451172	-1024.234619140625	-380.1843872070313	106.0450057983399	-1058.333862304688	-349.3464660644532	121.2381591796875	-979.5659790039065	-440.8214721679689	96.38917541503909	-1007.562927246094	-239.9441070556641	52.12643814086915	-992.909606933594	-234.4716339111329	48.98615646362306	-1031.762817382813	-259.2861328125001	43.83816146850587	-1081.603637695313	-365.5480651855469	596.1074218750001	-831.6719970703127	-323.2577819824219	543.7468261718751	-834.5416259765627	-289.0488281250001	548.0473632812501	-842.7898559570315	-344.1226196289063	464.4034729003907	-846.5756835937502	-344.6721496582032	424.254852294922	-856.8813476562502	-330.5503234863282	413.459930419922	-972.0283813476565	-445.1903686523439	353.7903442382813	-892.314147949219	-534.8665161132814	414.3762207031251	-880.3172607421877	-531.1726684570314	368.6777648925782	-890.4085083007815	-569.3473510742189	352.0667419433594	-932.4195556640627	-715.6985473632814	396.1749267578126	-920.2611083984377	-686.2541503906251	378.7780456542969	-999.1767578125002	-732.5706787109376	455.1416320800782	-965.0452270507815	-743.6691894531251	254.8542785644532	-1008.489196777344	-748.8027954101564	243.0605773925782	-963.6824951171877	-778.1912841796877	266.5945434570313	-913.7473754882815	
990	4.945	-61.09334182739259	1486.190551757813	-1035.197387695313	-198.057601928711	1412.780883789063	-1133.340698242188	-186.7030944824219	1419.581176757813	-981.7106933593752	-245.8410644531251	1325.088623046875	-1050.458740234375	-392.744110107422	1049.635498046875	-1023.104614257813	-145.6435546875	1208.781860351563	-1050.826049804688	-208.6410064697266	1247.774291992188	-1222.863159179688	-283.8499450683594	1057.381103515625	-1272.636962890625	-264.0733337402344	1022.68017578125	-1242.894287109375	-306.7872924804688	992.376159667969	-1274.12890625	-340.6101989746094	946.2423095703127	-1272.592163085938	-379.2449340820313	953.7453613281252	-1199.84326171875	-335.5993347167969	704.9192504882814	-1212.24755859375	-369.4151306152344	704.5184936523439	-1268.582153320313	-352.7887878417969	614.6961059570314	-1210.701416015625	-190.2312316894532	1241.452758789063	-881.4907836914065	-270.8336791992188	1061.32421875	-797.7846679687502	-237.1761627197266	1027.121215820313	-807.474304199219	-286.8691406250001	992.780212402344	-797.656188964844	-293.7205200195313	930.5312500000002	-802.3121337890627	-303.5575256347657	923.705749511719	-884.140075683594	-282.5003051757813	685.0170288085939	-813.9062500000002	-333.4092712402344	701.2384033203126	-773.1250610351565	-295.7984008789063	608.7489013671876	-782.9847412109377	-308.5849609375001	832.364196777344	-1123.19580078125	-304.1279602050782	823.188171386719	-910.033386230469	-440.6050109863282	949.0584106445315	-1009.407653808594	-460.3367919921876	925.6204223632815	-1037.767700195313	-457.7669067382814	923.1030883789065	-980.287780761719	-357.5823669433594	705.9943237304689	-1195.778076171875	-302.8039550781251	647.8706054687501	-1190.980712890625	-258.5359191894532	668.7875366210939	-1178.621459960938	-305.5982971191407	588.2197875976564	-1175.582153320313	-234.0924377441407	449.4573669433595	-1147.46044921875	-209.8074035644532	462.2447509765626	-1035.46435546875	-230.6862945556641	316.8954772949219	-1051.460815429688	-268.7818603515626	259.1774902343751	-1107.935302734375	-240.8993682861329	262.2907104492188	-1069.222290039063	-283.9698791503907	205.070053100586	-1024.223754882813	-380.2505493164063	106.1054916381836	-1058.314331054688	-349.3641052246094	121.2181243896485	-979.544128417969	-440.7826232910157	96.37104797363284	-1007.578796386719	-239.9743652343751	52.10957717895509	-992.928649902344	-234.4123077392579	48.98306274414064	-1031.746337890625	-259.2662963867188	43.8529167175293	-1081.604858398438	-364.6511535644532	597.1753540039064	-831.7438964843752	-319.0039672851563	545.1075439453126	-828.4234619140627	-288.1750183105469	549.0820312500001	-843.154479980469	-343.2244262695313	465.3481750488282	-846.5286254882815	-343.9252014160157	425.1231079101564	-856.8476562500002	-329.7986755371094	414.098114013672	-972.0357055664065	-444.409637451172	354.3874206542969	-892.3472900390627	-534.1610107421876	414.8879699707032	-880.2856445312502	-530.1984252929689	369.2980651855469	-890.3862915039065	-568.4989013671876	352.5403747558594	-932.3409423828127	-714.8931274414064	396.2819824218751	-920.2725830078127	-684.6289672851564	378.5203247070313	-998.720153808594	-731.7313232421876	455.3923339843751	-964.9436035156252	-742.4267578125001	254.9162597656251	-1008.424194335938	-747.7556762695314	243.2525634765626	-963.7212524414065	-777.0621337890627	266.5755615234376	-913.692565917969	
